<?xml version="1.0" standalone="no"?>
<svg xmlns="http://www.w3.org/2000/svg" width="500" height="500"><defs><clipPath id="clip-path-dot-color"><path d="M 19 145v 14h 7a 7 7, 0, 0, 0, 0 -14" transform="rotate(-90,26,152)"/><rect x="19" y="159" width="14" height="14" transform="rotate(0,26,166)"/><rect x="19" y="173" width="14" height="14" transform="rotate(0,26,180)"/><rect x="19" y="187" width="14" height="14" transform="rotate(0,26,194)"/><path d="M 19 201v 14h 7a 7 7, 0, 0, 0, 0 -14" transform="rotate(90,26,208)"/><path d="M 19 229v 14h 7a 7 7, 0, 0, 0, 0 -14" transform="rotate(180,26,236)"/><path d="M 19 257v 14h 14v -7a 7 7, 0, 0, 0, -7 -7" transform="rotate(-90,26,264)"/><path d="M 19 271v 14h 7a 7 7, 0, 0, 0, 0 -14" transform="rotate(90,26,278)"/><path d="M 19 313v 14h 7a 7 7, 0, 0, 0, 0 -14" transform="rotate(180,26,320)"/><circle cx="26" cy="348" r="7" transform="rotate(0,26,348)"/><rect x="33" y="159" width="14" height="14" transform="rotate(0,40,166)"/><rect x="33" y="173" width="14" height="14" transform="rotate(0,40,180)"/><path d="M 33 187v 14h 14v -7a 7 7, 0, 0, 0, -7 -7" transform="rotate(90,40,194)"/><path d="M 33 215v 14h 14v -7a 7 7, 0, 0, 0, -7 -7" transform="rotate(-90,40,222)"/><rect x="33" y="229" width="14" height="14" transform="rotate(0,40,236)"/><path d="M 33 257v 14h 7a 7 7, 0, 0, 0, 0 -14" transform="rotate(0,40,264)"/><path d="M 33 285v 14h 14v -7a 7 7, 0, 0, 0, -7 -7" transform="rotate(-90,40,292)"/><rect x="33" y="299" width="14" height="14" transform="rotate(0,40,306)"/><rect x="33" y="313" width="14" height="14" transform="rotate(0,40,320)"/><path d="M 33 327v 14h 14v -7a 7 7, 0, 0, 0, -7 -7" transform="rotate(180,40,334)"/><circle cx="54" cy="138" r="7" transform="rotate(0,54,138)"/><rect x="47" y="159" width="14" height="14" transform="rotate(0,54,166)"/><rect x="47" y="215" width="14" height="14" transform="rotate(0,54,222)"/><path d="M 47 229v 14h 14v -7a 7 7, 0, 0, 0, -7 -7" transform="rotate(90,54,236)"/><rect x="47" y="285" width="14" height="14" transform="rotate(0,54,292)"/><rect x="47" y="299" width="14" height="14" transform="rotate(0,54,306)"/><path d="M 47 327v 14h 14v -7a 7 7, 0, 0, 0, -7 -7" transform="rotate(0,54,334)"/><path d="M 47 341v 14h 14v -7a 7 7, 0, 0, 0, -7 -7" transform="rotate(180,54,348)"/><rect x="61" y="159" width="14" height="14" transform="rotate(0,68,166)"/><rect x="61" y="173" width="14" height="14" transform="rotate(0,68,180)"/><path d="M 61 187v 14h 14v -7a 7 7, 0, 0, 0, -7 -7" transform="rotate(180,68,194)"/><rect x="61" y="215" width="14" height="14" transform="rotate(0,68,222)"/><path d="M 61 257v 14h 7a 7 7, 0, 0, 0, 0 -14" transform="rotate(-90,68,264)"/><rect x="61" y="271" width="14" height="14" transform="rotate(0,68,278)"/><rect x="61" y="285" width="14" height="14" transform="rotate(0,68,292)"/><rect x="61" y="299" width="14" height="14" transform="rotate(0,68,306)"/><path d="M 61 313v 14h 7a 7 7, 0, 0, 0, 0 -14" transform="rotate(90,68,320)"/><path d="M 61 341v 14h 7a 7 7, 0, 0, 0, 0 -14" transform="rotate(0,68,348)"/><path d="M 75 131v 14h 14v -7a 7 7, 0, 0, 0, -7 -7" transform="rotate(-90,82,138)"/><rect x="75" y="145" width="14" height="14" transform="rotate(0,82,152)"/><rect x="75" y="159" width="14" height="14" transform="rotate(0,82,166)"/><rect x="75" y="173" width="14" height="14" transform="rotate(0,82,180)"/><rect x="75" y="187" width="14" height="14" transform="rotate(0,82,194)"/><rect x="75" y="201" width="14" height="14" transform="rotate(0,82,208)"/><rect x="75" y="215" width="14" height="14" transform="rotate(0,82,222)"/><circle cx="82" cy="250" r="7" transform="rotate(0,82,250)"/><path d="M 75 271v 14h 14v -7a 7 7, 0, 0, 0, -7 -7" transform="rotate(0,82,278)"/><rect x="75" y="285" width="14" height="14" transform="rotate(0,82,292)"/><path d="M 75 299v 14h 14v -7a 7 7, 0, 0, 0, -7 -7" transform="rotate(90,82,306)"/><circle cx="82" cy="362" r="7" transform="rotate(0,82,362)"/><rect x="89" y="131" width="14" height="14" transform="rotate(0,96,138)"/><rect x="89" y="159" width="14" height="14" transform="rotate(0,96,166)"/><path d="M 89 173v 14h 14v -7a 7 7, 0, 0, 0, -7 -7" transform="rotate(90,96,180)"/><rect x="89" y="215" width="14" height="14" transform="rotate(0,96,222)"/><path d="M 89 229v 14h 7a 7 7, 0, 0, 0, 0 -14" transform="rotate(90,96,236)"/><path d="M 89 285v 14h 7a 7 7, 0, 0, 0, 0 -14" transform="rotate(0,96,292)"/><circle cx="96" cy="320" r="7" transform="rotate(0,96,320)"/><path d="M 103 131v 14h 7a 7 7, 0, 0, 0, 0 -14" transform="rotate(0,110,138)"/><rect x="103" y="159" width="14" height="14" transform="rotate(0,110,166)"/><path d="M 103 187v 14h 7a 7 7, 0, 0, 0, 0 -14" transform="rotate(180,110,194)"/><path d="M 103 215v 14h 7a 7 7, 0, 0, 0, 0 -14" transform="rotate(0,110,222)"/><circle cx="110" cy="250" r="7" transform="rotate(0,110,250)"/><path d="M 103 271v 14h 7a 7 7, 0, 0, 0, 0 -14" transform="rotate(180,110,278)"/><circle cx="110" cy="306" r="7" transform="rotate(0,110,306)"/><circle cx="110" cy="334" r="7" transform="rotate(0,110,334)"/><circle cx="110" cy="362" r="7" transform="rotate(0,110,362)"/><path d="M 117 159v 14h 14v -7a 7 7, 0, 0, 0, -7 -7" transform="rotate(0,124,166)"/><rect x="117" y="173" width="14" height="14" transform="rotate(0,124,180)"/><rect x="117" y="187" width="14" height="14" transform="rotate(0,124,194)"/><path d="M 117 201v 14h 7a 7 7, 0, 0, 0, 0 -14" transform="rotate(90,124,208)"/><path d="M 117 257v 14h 14v -7a 7 7, 0, 0, 0, -7 -7" transform="rotate(-90,124,264)"/><path d="M 117 271v 14h 14v -7a 7 7, 0, 0, 0, -7 -7" transform="rotate(90,124,278)"/><path d="M 117 313v 14h 7a 7 7, 0, 0, 0, 0 -14" transform="rotate(180,124,320)"/><path d="M 117 341v 14h 7a 7 7, 0, 0, 0, 0 -14" transform="rotate(180,124,348)"/><path d="M 131 33v 14h 7a 7 7, 0, 0, 0, 0 -14" transform="rotate(180,138,40)"/><circle cx="138" cy="82" r="7" transform="rotate(0,138,82)"/><circle cx="138" cy="110" r="7" transform="rotate(0,138,110)"/><path d="M 131 131v 14h 7a 7 7, 0, 0, 0, 0 -14" transform="rotate(-90,138,138)"/><path d="M 131 145v 14h 14v -7a 7 7, 0, 0, 0, -7 -7" transform="rotate(180,138,152)"/><path d="M 131 229v 14h 7a 7 7, 0, 0, 0, 0 -14" transform="rotate(-90,138,236)"/><rect x="131" y="243" width="14" height="14" transform="rotate(0,138,250)"/><path d="M 131 257v 14h 14v -7a 7 7, 0, 0, 0, -7 -7" transform="rotate(90,138,264)"/><path d="M 131 285v 14h 7a 7 7, 0, 0, 0, 0 -14" transform="rotate(-90,138,292)"/><rect x="131" y="299" width="14" height="14" transform="rotate(0,138,306)"/><rect x="131" y="313" width="14" height="14" transform="rotate(0,138,320)"/><rect x="131" y="327" width="14" height="14" transform="rotate(0,138,334)"/><rect x="131" y="341" width="14" height="14" transform="rotate(0,138,348)"/><rect x="131" y="355" width="14" height="14" transform="rotate(0,138,362)"/><path d="M 131 369v 14h 14v -7a 7 7, 0, 0, 0, -7 -7" transform="rotate(180,138,376)"/><path d="M 131 397v 14h 7a 7 7, 0, 0, 0, 0 -14" transform="rotate(-90,138,404)"/><path d="M 131 411v 14h 7a 7 7, 0, 0, 0, 0 -14" transform="rotate(90,138,418)"/><path d="M 131 439v 14h 7a 7 7, 0, 0, 0, 0 -14" transform="rotate(180,138,446)"/><path d="M 145 19v 14h 14v -7a 7 7, 0, 0, 0, -7 -7" transform="rotate(-90,152,26)"/><rect x="145" y="33" width="14" height="14" transform="rotate(0,152,40)"/><path d="M 145 61v 14h 7a 7 7, 0, 0, 0, 0 -14" transform="rotate(180,152,68)"/><path d="M 145 89v 14h 7a 7 7, 0, 0, 0, 0 -14" transform="rotate(180,152,96)"/><rect x="145" y="145" width="14" height="14" transform="rotate(0,152,152)"/><rect x="145" y="159" width="14" height="14" transform="rotate(0,152,166)"/><path d="M 145 173v 14h 7a 7 7, 0, 0, 0, 0 -14" transform="rotate(90,152,180)"/><path d="M 145 215v 14h 7a 7 7, 0, 0, 0, 0 -14" transform="rotate(180,152,222)"/><path d="M 145 243v 14h 7a 7 7, 0, 0, 0, 0 -14" transform="rotate(0,152,250)"/><rect x="145" y="341" width="14" height="14" transform="rotate(0,152,348)"/><rect x="145" y="369" width="14" height="14" transform="rotate(0,152,376)"/><path d="M 145 425v 14h 14v -7a 7 7, 0, 0, 0, -7 -7" transform="rotate(-90,152,432)"/><path d="M 145 439v 14h 14v -7a 7 7, 0, 0, 0, -7 -7" transform="rotate(90,152,446)"/><rect x="159" y="19" width="14" height="14" transform="rotate(0,166,26)"/><rect x="159" y="33" width="14" height="14" transform="rotate(0,166,40)"/><rect x="159" y="47" width="14" height="14" transform="rotate(0,166,54)"/><rect x="159" y="61" width="14" height="14" transform="rotate(0,166,68)"/><rect x="159" y="89" width="14" height="14" transform="rotate(0,166,96)"/><path d="M 159 103v 14h 7a 7 7, 0, 0, 0, 0 -14" transform="rotate(90,166,110)"/><rect x="159" y="145" width="14" height="14" transform="rotate(0,166,152)"/><rect x="159" y="159" width="14" height="14" transform="rotate(0,166,166)"/><path d="M 159 187v 14h 14v -7a 7 7, 0, 0, 0, -7 -7" transform="rotate(-90,166,194)"/><rect x="159" y="201" width="14" height="14" transform="rotate(0,166,208)"/><rect x="159" y="215" width="14" height="14" transform="rotate(0,166,222)"/><path d="M 159 229v 14h 14v -7a 7 7, 0, 0, 0, -7 -7" transform="rotate(180,166,236)"/><path d="M 159 257v 14h 7a 7 7, 0, 0, 0, 0 -14" transform="rotate(180,166,264)"/><path d="M 159 313v 14h 14v -7a 7 7, 0, 0, 0, -7 -7" transform="rotate(-90,166,320)"/><rect x="159" y="327" width="14" height="14" transform="rotate(0,166,334)"/><path d="M 159 341v 14h 14v -7a 7 7, 0, 0, 0, -7 -7" transform="rotate(90,166,348)"/><rect x="159" y="369" width="14" height="14" transform="rotate(0,166,376)"/><path d="M 159 383v 14h 7a 7 7, 0, 0, 0, 0 -14" transform="rotate(90,166,390)"/><path d="M 159 425v 14h 7a 7 7, 0, 0, 0, 0 -14" transform="rotate(0,166,432)"/><circle cx="166" cy="460" r="7" transform="rotate(0,166,460)"/><path d="M 173 19v 14h 14v -7a 7 7, 0, 0, 0, -7 -7" transform="rotate(0,180,26)"/><path d="M 173 33v 14h 14v -7a 7 7, 0, 0, 0, -7 -7" transform="rotate(90,180,40)"/><rect x="173" y="61" width="14" height="14" transform="rotate(0,180,68)"/><rect x="173" y="89" width="14" height="14" transform="rotate(0,180,96)"/><path d="M 173 145v 14h 14v -7a 7 7, 0, 0, 0, -7 -7" transform="rotate(0,180,152)"/><rect x="173" y="159" width="14" height="14" transform="rotate(0,180,166)"/><rect x="173" y="187" width="14" height="14" transform="rotate(0,180,194)"/><rect x="173" y="201" width="14" height="14" transform="rotate(0,180,208)"/><rect x="173" y="229" width="14" height="14" transform="rotate(0,180,236)"/><rect x="173" y="243" width="14" height="14" transform="rotate(0,180,250)"/><rect x="173" y="257" width="14" height="14" transform="rotate(0,180,264)"/><rect x="173" y="271" width="14" height="14" transform="rotate(0,180,278)"/><rect x="173" y="285" width="14" height="14" transform="rotate(0,180,292)"/><rect x="173" y="299" width="14" height="14" transform="rotate(0,180,306)"/><path d="M 173 313v 14h 14v -7a 7 7, 0, 0, 0, -7 -7" transform="rotate(90,180,320)"/><path d="M 173 355v 14h 7a 7 7, 0, 0, 0, 0 -14" transform="rotate(-90,180,362)"/><rect x="173" y="369" width="14" height="14" transform="rotate(0,180,376)"/><rect x="187" y="61" width="14" height="14" transform="rotate(0,194,68)"/><rect x="187" y="75" width="14" height="14" transform="rotate(0,194,82)"/><rect x="187" y="89" width="14" height="14" transform="rotate(0,194,96)"/><path d="M 187 103v 14h 7a 7 7, 0, 0, 0, 0 -14" transform="rotate(90,194,110)"/><path d="M 187 159v 14h 14v -7a 7 7, 0, 0, 0, -7 -7" transform="rotate(0,194,166)"/><rect x="187" y="173" width="14" height="14" transform="rotate(0,194,180)"/><rect x="187" y="187" width="14" height="14" transform="rotate(0,194,194)"/><rect x="187" y="201" width="14" height="14" transform="rotate(0,194,208)"/><rect x="187" y="215" width="14" height="14" transform="rotate(0,194,222)"/><rect x="187" y="229" width="14" height="14" transform="rotate(0,194,236)"/><path d="M 187 271v 14h 7a 7 7, 0, 0, 0, 0 -14" transform="rotate(0,194,278)"/><path d="M 187 299v 14h 7a 7 7, 0, 0, 0, 0 -14" transform="rotate(0,194,306)"/><path d="M 187 341v 14h 7a 7 7, 0, 0, 0, 0 -14" transform="rotate(180,194,348)"/><rect x="187" y="369" width="14" height="14" transform="rotate(0,194,376)"/><path d="M 187 383v 14h 7a 7 7, 0, 0, 0, 0 -14" transform="rotate(90,194,390)"/><path d="M 187 411v 14h 7a 7 7, 0, 0, 0, 0 -14" transform="rotate(-90,194,418)"/><path d="M 187 425v 14h 7a 7 7, 0, 0, 0, 0 -14" transform="rotate(90,194,432)"/><path d="M 187 453v 14h 7a 7 7, 0, 0, 0, 0 -14" transform="rotate(-90,194,460)"/><path d="M 187 467v 14h 7a 7 7, 0, 0, 0, 0 -14" transform="rotate(90,194,474)"/><path d="M 201 47v 14h 14v -7a 7 7, 0, 0, 0, -7 -7" transform="rotate(-90,208,54)"/><rect x="201" y="61" width="14" height="14" transform="rotate(0,208,68)"/><rect x="201" y="75" width="14" height="14" transform="rotate(0,208,82)"/><path d="M 201 89v 14h 14v -7a 7 7, 0, 0, 0, -7 -7" transform="rotate(90,208,96)"/><circle cx="208" cy="124" r="7" transform="rotate(0,208,124)"/><path d="M 201 145v 14h 7a 7 7, 0, 0, 0, 0 -14" transform="rotate(180,208,152)"/><rect x="201" y="173" width="14" height="14" transform="rotate(0,208,180)"/><path d="M 201 201v 14h 14v -7a 7 7, 0, 0, 0, -7 -7" transform="rotate(0,208,208)"/><rect x="201" y="215" width="14" height="14" transform="rotate(0,208,222)"/><path d="M 201 229v 14h 14v -7a 7 7, 0, 0, 0, -7 -7" transform="rotate(90,208,236)"/><path d="M 201 257v 14h 7a 7 7, 0, 0, 0, 0 -14" transform="rotate(180,208,264)"/><path d="M 201 285v 14h 7a 7 7, 0, 0, 0, 0 -14" transform="rotate(180,208,292)"/><path d="M 201 313v 14h 14v -7a 7 7, 0, 0, 0, -7 -7" transform="rotate(-90,208,320)"/><rect x="201" y="327" width="14" height="14" transform="rotate(0,208,334)"/><rect x="201" y="341" width="14" height="14" transform="rotate(0,208,348)"/><rect x="201" y="355" width="14" height="14" transform="rotate(0,208,362)"/><rect x="201" y="369" width="14" height="14" transform="rotate(0,208,376)"/><circle cx="208" cy="404" r="7" transform="rotate(0,208,404)"/><path d="M 201 439v 14h 7a 7 7, 0, 0, 0, 0 -14" transform="rotate(180,208,446)"/><path d="M 215 33v 14h 7a 7 7, 0, 0, 0, 0 -14" transform="rotate(-90,222,40)"/><path d="M 215 47v 14h 14v -7a 7 7, 0, 0, 0, -7 -7" transform="rotate(90,222,54)"/><rect x="215" y="75" width="14" height="14" transform="rotate(0,222,82)"/><circle cx="222" cy="110" r="7" transform="rotate(0,222,110)"/><path d="M 215 131v 14h 14v -7a 7 7, 0, 0, 0, -7 -7" transform="rotate(-90,222,138)"/><path d="M 215 145v 14h 14v -7a 7 7, 0, 0, 0, -7 -7" transform="rotate(90,222,152)"/><rect x="215" y="173" width="14" height="14" transform="rotate(0,222,180)"/><path d="M 215 187v 14h 7a 7 7, 0, 0, 0, 0 -14" transform="rotate(90,222,194)"/><path d="M 215 257v 14h 7a 7 7, 0, 0, 0, 0 -14" transform="rotate(0,222,264)"/><rect x="215" y="285" width="14" height="14" transform="rotate(0,222,292)"/><rect x="215" y="313" width="14" height="14" transform="rotate(0,222,320)"/><rect x="215" y="341" width="14" height="14" transform="rotate(0,222,348)"/><rect x="215" y="369" width="14" height="14" transform="rotate(0,222,376)"/><path d="M 215 383v 14h 14v -7a 7 7, 0, 0, 0, -7 -7" transform="rotate(180,222,390)"/><path d="M 215 411v 14h 14v -7a 7 7, 0, 0, 0, -7 -7" transform="rotate(-90,222,418)"/><rect x="215" y="425" width="14" height="14" transform="rotate(0,222,432)"/><rect x="215" y="439" width="14" height="14" transform="rotate(0,222,446)"/><path d="M 215 453v 14h 7a 7 7, 0, 0, 0, 0 -14" transform="rotate(90,222,460)"/><path d="M 229 19v 14h 7a 7 7, 0, 0, 0, 0 -14" transform="rotate(180,236,26)"/><path d="M 229 75v 14h 7a 7 7, 0, 0, 0, 0 -14" transform="rotate(0,236,82)"/><path d="M 229 131v 14h 7a 7 7, 0, 0, 0, 0 -14" transform="rotate(0,236,138)"/><path d="M 229 173v 14h 7a 7 7, 0, 0, 0, 0 -14" transform="rotate(0,236,180)"/><circle cx="236" cy="208" r="7" transform="rotate(0,236,208)"/><path d="M 229 229v 14h 7a 7 7, 0, 0, 0, 0 -14" transform="rotate(-90,236,236)"/><path d="M 229 243v 14h 7a 7 7, 0, 0, 0, 0 -14" transform="rotate(90,236,250)"/><path d="M 229 285v 14h 14v -7a 7 7, 0, 0, 0, -7 -7" transform="rotate(0,236,292)"/><rect x="229" y="299" width="14" height="14" transform="rotate(0,236,306)"/><rect x="229" y="313" width="14" height="14" transform="rotate(0,236,320)"/><path d="M 229 341v 14h 14v -7a 7 7, 0, 0, 0, -7 -7" transform="rotate(0,236,348)"/><rect x="229" y="355" width="14" height="14" transform="rotate(0,236,362)"/><rect x="229" y="369" width="14" height="14" transform="rotate(0,236,376)"/><rect x="229" y="383" width="14" height="14" transform="rotate(0,236,390)"/><rect x="229" y="411" width="14" height="14" transform="rotate(0,236,418)"/><rect x="243" y="19" width="14" height="14" transform="rotate(0,250,26)"/><circle cx="250" cy="68" r="7" transform="rotate(0,250,68)"/><path d="M 243 89v 14h 14v -7a 7 7, 0, 0, 0, -7 -7" transform="rotate(-90,250,96)"/><path d="M 243 103v 14h 7a 7 7, 0, 0, 0, 0 -14" transform="rotate(90,250,110)"/><path d="M 243 145v 14h 7a 7 7, 0, 0, 0, 0 -14" transform="rotate(180,250,152)"/><path d="M 243 215v 14h 7a 7 7, 0, 0, 0, 0 -14" transform="rotate(180,250,222)"/><circle cx="250" cy="264" r="7" transform="rotate(0,250,264)"/><rect x="243" y="299" width="14" height="14" transform="rotate(0,250,306)"/><rect x="243" y="313" width="14" height="14" transform="rotate(0,250,320)"/><path d="M 243 327v 14h 7a 7 7, 0, 0, 0, 0 -14" transform="rotate(90,250,334)"/><rect x="243" y="355" width="14" height="14" transform="rotate(0,250,362)"/><path d="M 243 383v 14h 7a 7 7, 0, 0, 0, 0 -14" transform="rotate(0,250,390)"/><path d="M 243 411v 14h 7a 7 7, 0, 0, 0, 0 -14" transform="rotate(0,250,418)"/><circle cx="250" cy="460" r="7" transform="rotate(0,250,460)"/><path d="M 257 19v 14h 7a 7 7, 0, 0, 0, 0 -14" transform="rotate(0,264,26)"/><path d="M 257 89v 14h 7a 7 7, 0, 0, 0, 0 -14" transform="rotate(0,264,96)"/><rect x="257" y="145" width="14" height="14" transform="rotate(0,264,152)"/><path d="M 257 159v 14h 14v -7a 7 7, 0, 0, 0, -7 -7" transform="rotate(180,264,166)"/><path d="M 257 201v 14h 7a 7 7, 0, 0, 0, 0 -14" transform="rotate(-90,264,208)"/><rect x="257" y="215" width="14" height="14" transform="rotate(0,264,222)"/><rect x="257" y="229" width="14" height="14" transform="rotate(0,264,236)"/><path d="M 257 243v 14h 7a 7 7, 0, 0, 0, 0 -14" transform="rotate(90,264,250)"/><circle cx="264" cy="278" r="7" transform="rotate(0,264,278)"/><rect x="257" y="299" width="14" height="14" transform="rotate(0,264,306)"/><path d="M 257 313v 14h 14v -7a 7 7, 0, 0, 0, -7 -7" transform="rotate(90,264,320)"/><path d="M 257 341v 14h 14v -7a 7 7, 0, 0, 0, -7 -7" transform="rotate(-90,264,348)"/><rect x="257" y="355" width="14" height="14" transform="rotate(0,264,362)"/><path d="M 257 425v 14h 14v -7a 7 7, 0, 0, 0, -7 -7" transform="rotate(-90,264,432)"/><path d="M 257 439v 14h 7a 7 7, 0, 0, 0, 0 -14" transform="rotate(90,264,446)"/><path d="M 271 47v 14h 14v -7a 7 7, 0, 0, 0, -7 -7" transform="rotate(-90,278,54)"/><path d="M 271 61v 14h 14v -7a 7 7, 0, 0, 0, -7 -7" transform="rotate(180,278,68)"/><circle cx="278" cy="110" r="7" transform="rotate(0,278,110)"/><path d="M 271 131v 14h 14v -7a 7 7, 0, 0, 0, -7 -7" transform="rotate(-90,278,138)"/><rect x="271" y="145" width="14" height="14" transform="rotate(0,278,152)"/><rect x="271" y="159" width="14" height="14" transform="rotate(0,278,166)"/><rect x="271" y="173" width="14" height="14" transform="rotate(0,278,180)"/><path d="M 271 187v 14h 14v -7a 7 7, 0, 0, 0, -7 -7" transform="rotate(180,278,194)"/><rect x="271" y="229" width="14" height="14" transform="rotate(0,278,236)"/><circle cx="278" cy="264" r="7" transform="rotate(0,278,264)"/><path d="M 271 299v 14h 7a 7 7, 0, 0, 0, 0 -14" transform="rotate(0,278,306)"/><path d="M 271 341v 14h 14v -7a 7 7, 0, 0, 0, -7 -7" transform="rotate(0,278,348)"/><rect x="271" y="355" width="14" height="14" transform="rotate(0,278,362)"/><rect x="271" y="369" width="14" height="14" transform="rotate(0,278,376)"/><rect x="271" y="383" width="14" height="14" transform="rotate(0,278,390)"/><path d="M 271 397v 14h 14v -7a 7 7, 0, 0, 0, -7 -7" transform="rotate(180,278,404)"/><path d="M 271 425v 14h 7a 7 7, 0, 0, 0, 0 -14" transform="rotate(0,278,432)"/><path d="M 271 453v 14h 7a 7 7, 0, 0, 0, 0 -14" transform="rotate(180,278,460)"/><path d="M 285 33v 14h 14v -7a 7 7, 0, 0, 0, -7 -7" transform="rotate(-90,292,40)"/><rect x="285" y="47" width="14" height="14" transform="rotate(0,292,54)"/><path d="M 285 61v 14h 14v -7a 7 7, 0, 0, 0, -7 -7" transform="rotate(90,292,68)"/><path d="M 285 131v 14h 14v -7a 7 7, 0, 0, 0, -7 -7" transform="rotate(0,292,138)"/><rect x="285" y="145" width="14" height="14" transform="rotate(0,292,152)"/><rect x="285" y="159" width="14" height="14" transform="rotate(0,292,166)"/><rect x="285" y="173" width="14" height="14" transform="rotate(0,292,180)"/><rect x="285" y="187" width="14" height="14" transform="rotate(0,292,194)"/><rect x="285" y="229" width="14" height="14" transform="rotate(0,292,236)"/><path d="M 285 271v 14h 7a 7 7, 0, 0, 0, 0 -14" transform="rotate(-90,292,278)"/><path d="M 285 285v 14h 14v -7a 7 7, 0, 0, 0, -7 -7" transform="rotate(180,292,292)"/><path d="M 285 327v 14h 7a 7 7, 0, 0, 0, 0 -14" transform="rotate(180,292,334)"/><path d="M 285 355v 14h 14v -7a 7 7, 0, 0, 0, -7 -7" transform="rotate(0,292,362)"/><rect x="285" y="369" width="14" height="14" transform="rotate(0,292,376)"/><rect x="285" y="383" width="14" height="14" transform="rotate(0,292,390)"/><path d="M 285 397v 14h 14v -7a 7 7, 0, 0, 0, -7 -7" transform="rotate(90,292,404)"/><path d="M 285 453v 14h 14v -7a 7 7, 0, 0, 0, -7 -7" transform="rotate(0,292,460)"/><path d="M 285 467v 14h 7a 7 7, 0, 0, 0, 0 -14" transform="rotate(90,292,474)"/><path d="M 299 19v 14h 14v -7a 7 7, 0, 0, 0, -7 -7" transform="rotate(-90,306,26)"/><rect x="299" y="33" width="14" height="14" transform="rotate(0,306,40)"/><path d="M 299 103v 14h 7a 7 7, 0, 0, 0, 0 -14" transform="rotate(-90,306,110)"/><path d="M 299 117v 14h 7a 7 7, 0, 0, 0, 0 -14" transform="rotate(90,306,124)"/><path d="M 299 159v 14h 14v -7a 7 7, 0, 0, 0, -7 -7" transform="rotate(0,306,166)"/><rect x="299" y="173" width="14" height="14" transform="rotate(0,306,180)"/><rect x="299" y="187" width="14" height="14" transform="rotate(0,306,194)"/><rect x="299" y="201" width="14" height="14" transform="rotate(0,306,208)"/><rect x="299" y="215" width="14" height="14" transform="rotate(0,306,222)"/><path d="M 299 229v 14h 14v -7a 7 7, 0, 0, 0, -7 -7" transform="rotate(90,306,236)"/><path d="M 299 257v 14h 7a 7 7, 0, 0, 0, 0 -14" transform="rotate(180,306,264)"/><rect x="299" y="285" width="14" height="14" transform="rotate(0,306,292)"/><path d="M 299 327v 14h 7a 7 7, 0, 0, 0, 0 -14" transform="rotate(0,306,334)"/><path d="M 299 369v 14h 14v -7a 7 7, 0, 0, 0, -7 -7" transform="rotate(0,306,376)"/><path d="M 299 383v 14h 14v -7a 7 7, 0, 0, 0, -7 -7" transform="rotate(90,306,390)"/><path d="M 299 411v 14h 7a 7 7, 0, 0, 0, 0 -14" transform="rotate(-90,306,418)"/><path d="M 299 425v 14h 14v -7a 7 7, 0, 0, 0, -7 -7" transform="rotate(180,306,432)"/><path d="M 313 19v 14h 14v -7a 7 7, 0, 0, 0, -7 -7" transform="rotate(0,320,26)"/><path d="M 313 33v 14h 14v -7a 7 7, 0, 0, 0, -7 -7" transform="rotate(90,320,40)"/><circle cx="320" cy="96" r="7" transform="rotate(0,320,96)"/><path d="M 313 131v 14h 7a 7 7, 0, 0, 0, 0 -14" transform="rotate(-90,320,138)"/><path d="M 313 145v 14h 7a 7 7, 0, 0, 0, 0 -14" transform="rotate(90,320,152)"/><rect x="313" y="187" width="14" height="14" transform="rotate(0,320,194)"/><rect x="313" y="201" width="14" height="14" transform="rotate(0,320,208)"/><path d="M 313 257v 14h 7a 7 7, 0, 0, 0, 0 -14" transform="rotate(0,320,264)"/><path d="M 313 285v 14h 14v -7a 7 7, 0, 0, 0, -7 -7" transform="rotate(0,320,292)"/><rect x="313" y="299" width="14" height="14" transform="rotate(0,320,306)"/><path d="M 313 313v 14h 14v -7a 7 7, 0, 0, 0, -7 -7" transform="rotate(180,320,320)"/><path d="M 313 341v 14h 14v -7a 7 7, 0, 0, 0, -7 -7" transform="rotate(-90,320,348)"/><path d="M 313 355v 14h 7a 7 7, 0, 0, 0, 0 -14" transform="rotate(90,320,362)"/><path d="M 313 397v 14h 7a 7 7, 0, 0, 0, 0 -14" transform="rotate(180,320,404)"/><path d="M 313 425v 14h 7a 7 7, 0, 0, 0, 0 -14" transform="rotate(0,320,432)"/><path d="M 313 453v 14h 7a 7 7, 0, 0, 0, 0 -14" transform="rotate(180,320,460)"/><circle cx="334" cy="54" r="7" transform="rotate(0,334,54)"/><path d="M 327 103v 14h 7a 7 7, 0, 0, 0, 0 -14" transform="rotate(-90,334,110)"/><path d="M 327 117v 14h 7a 7 7, 0, 0, 0, 0 -14" transform="rotate(90,334,124)"/><path d="M 327 173v 14h 7a 7 7, 0, 0, 0, 0 -14" transform="rotate(-90,334,180)"/><rect x="327" y="187" width="14" height="14" transform="rotate(0,334,194)"/><path d="M 327 201v 14h 14v -7a 7 7, 0, 0, 0, -7 -7" transform="rotate(90,334,208)"/><path d="M 327 299v 14h 14v -7a 7 7, 0, 0, 0, -7 -7" transform="rotate(0,334,306)"/><rect x="327" y="313" width="14" height="14" transform="rotate(0,334,320)"/><rect x="327" y="327" width="14" height="14" transform="rotate(0,334,334)"/><rect x="327" y="341" width="14" height="14" transform="rotate(0,334,348)"/><path d="M 327 369v 14h 7a 7 7, 0, 0, 0, 0 -14" transform="rotate(180,334,376)"/><path d="M 327 397v 14h 14v -7a 7 7, 0, 0, 0, -7 -7" transform="rotate(0,334,404)"/><path d="M 327 411v 14h 7a 7 7, 0, 0, 0, 0 -14" transform="rotate(90,334,418)"/><path d="M 327 439v 14h 7a 7 7, 0, 0, 0, 0 -14" transform="rotate(-90,334,446)"/><path d="M 327 453v 14h 14v -7a 7 7, 0, 0, 0, -7 -7" transform="rotate(90,334,460)"/><path d="M 341 75v 14h 7a 7 7, 0, 0, 0, 0 -14" transform="rotate(180,348,82)"/><path d="M 341 145v 14h 7a 7 7, 0, 0, 0, 0 -14" transform="rotate(180,348,152)"/><rect x="341" y="187" width="14" height="14" transform="rotate(0,348,194)"/><path d="M 341 229v 14h 7a 7 7, 0, 0, 0, 0 -14" transform="rotate(-90,348,236)"/><path d="M 341 243v 14h 14v -7a 7 7, 0, 0, 0, -7 -7" transform="rotate(180,348,250)"/><rect x="341" y="313" width="14" height="14" transform="rotate(0,348,320)"/><rect x="341" y="341" width="14" height="14" transform="rotate(0,348,348)"/><rect x="341" y="369" width="14" height="14" transform="rotate(0,348,376)"/><path d="M 341 383v 14h 14v -7a 7 7, 0, 0, 0, -7 -7" transform="rotate(180,348,390)"/><path d="M 355 19v 14h 7a 7 7, 0, 0, 0, 0 -14" transform="rotate(-90,362,26)"/><rect x="355" y="33" width="14" height="14" transform="rotate(0,362,40)"/><path d="M 355 47v 14h 7a 7 7, 0, 0, 0, 0 -14" transform="rotate(90,362,54)"/><path d="M 355 75v 14h 7a 7 7, 0, 0, 0, 0 -14" transform="rotate(0,362,82)"/><circle cx="362" cy="110" r="7" transform="rotate(0,362,110)"/><path d="M 355 145v 14h 7a 7 7, 0, 0, 0, 0 -14" transform="rotate(0,362,152)"/><rect x="355" y="187" width="14" height="14" transform="rotate(0,362,194)"/><rect x="355" y="201" width="14" height="14" transform="rotate(0,362,208)"/><path d="M 355 215v 14h 7a 7 7, 0, 0, 0, 0 -14" transform="rotate(90,362,222)"/><path d="M 355 243v 14h 7a 7 7, 0, 0, 0, 0 -14" transform="rotate(0,362,250)"/><path d="M 355 285v 14h 7a 7 7, 0, 0, 0, 0 -14" transform="rotate(-90,362,292)"/><rect x="355" y="299" width="14" height="14" transform="rotate(0,362,306)"/><rect x="355" y="313" width="14" height="14" transform="rotate(0,362,320)"/><rect x="355" y="327" width="14" height="14" transform="rotate(0,362,334)"/><rect x="355" y="341" width="14" height="14" transform="rotate(0,362,348)"/><rect x="355" y="355" width="14" height="14" transform="rotate(0,362,362)"/><rect x="355" y="369" width="14" height="14" transform="rotate(0,362,376)"/><rect x="355" y="383" width="14" height="14" transform="rotate(0,362,390)"/><rect x="355" y="397" width="14" height="14" transform="rotate(0,362,404)"/><path d="M 355 411v 14h 14v -7a 7 7, 0, 0, 0, -7 -7" transform="rotate(180,362,418)"/><circle cx="362" cy="474" r="7" transform="rotate(0,362,474)"/><circle cx="376" cy="138" r="7" transform="rotate(0,376,138)"/><path d="M 369 159v 14h 14v -7a 7 7, 0, 0, 0, -7 -7" transform="rotate(-90,376,166)"/><rect x="369" y="173" width="14" height="14" transform="rotate(0,376,180)"/><path d="M 369 187v 14h 14v -7a 7 7, 0, 0, 0, -7 -7" transform="rotate(90,376,194)"/><path d="M 369 229v 14h 7a 7 7, 0, 0, 0, 0 -14" transform="rotate(180,376,236)"/><path d="M 369 257v 14h 14v -7a 7 7, 0, 0, 0, -7 -7" transform="rotate(-90,376,264)"/><path d="M 369 271v 14h 14v -7a 7 7, 0, 0, 0, -7 -7" transform="rotate(180,376,278)"/><path d="M 369 341v 14h 14v -7a 7 7, 0, 0, 0, -7 -7" transform="rotate(0,376,348)"/><rect x="369" y="355" width="14" height="14" transform="rotate(0,376,362)"/><rect x="369" y="411" width="14" height="14" transform="rotate(0,376,418)"/><path d="M 369 439v 14h 7a 7 7, 0, 0, 0, 0 -14" transform="rotate(-90,376,446)"/><path d="M 369 453v 14h 7a 7 7, 0, 0, 0, 0 -14" transform="rotate(90,376,460)"/><rect x="383" y="159" width="14" height="14" transform="rotate(0,390,166)"/><rect x="383" y="173" width="14" height="14" transform="rotate(0,390,180)"/><path d="M 383 215v 14h 14v -7a 7 7, 0, 0, 0, -7 -7" transform="rotate(-90,390,222)"/><rect x="383" y="229" width="14" height="14" transform="rotate(0,390,236)"/><rect x="383" y="243" width="14" height="14" transform="rotate(0,390,250)"/><rect x="383" y="257" width="14" height="14" transform="rotate(0,390,264)"/><rect x="383" y="271" width="14" height="14" transform="rotate(0,390,278)"/><path d="M 383 313v 14h 14v -7a 7 7, 0, 0, 0, -7 -7" transform="rotate(-90,390,320)"/><path d="M 383 327v 14h 7a 7 7, 0, 0, 0, 0 -14" transform="rotate(90,390,334)"/><rect x="383" y="355" width="14" height="14" transform="rotate(0,390,362)"/><circle cx="390" cy="390" r="7" transform="rotate(0,390,390)"/><rect x="383" y="411" width="14" height="14" transform="rotate(0,390,418)"/><path d="M 383 425v 14h 7a 7 7, 0, 0, 0, 0 -14" transform="rotate(90,390,432)"/><path d="M 397 145v 14h 7a 7 7, 0, 0, 0, 0 -14" transform="rotate(-90,404,152)"/><rect x="397" y="159" width="14" height="14" transform="rotate(0,404,166)"/><rect x="397" y="173" width="14" height="14" transform="rotate(0,404,180)"/><path d="M 397 187v 14h 7a 7 7, 0, 0, 0, 0 -14" transform="rotate(90,404,194)"/><path d="M 397 215v 14h 7a 7 7, 0, 0, 0, 0 -14" transform="rotate(0,404,222)"/><path d="M 397 257v 14h 14v -7a 7 7, 0, 0, 0, -7 -7" transform="rotate(0,404,264)"/><path d="M 397 271v 14h 14v -7a 7 7, 0, 0, 0, -7 -7" transform="rotate(90,404,278)"/><path d="M 397 313v 14h 7a 7 7, 0, 0, 0, 0 -14" transform="rotate(0,404,320)"/><rect x="397" y="355" width="14" height="14" transform="rotate(0,404,362)"/><rect x="397" y="411" width="14" height="14" transform="rotate(0,404,418)"/><circle cx="418" cy="138" r="7" transform="rotate(0,418,138)"/><rect x="411" y="159" width="14" height="14" transform="rotate(0,418,166)"/><circle cx="418" cy="208" r="7" transform="rotate(0,418,208)"/><path d="M 411 285v 14h 14v -7a 7 7, 0, 0, 0, -7 -7" transform="rotate(-90,418,292)"/><path d="M 411 299v 14h 7a 7 7, 0, 0, 0, 0 -14" transform="rotate(90,418,306)"/><path d="M 411 355v 14h 14v -7a 7 7, 0, 0, 0, -7 -7" transform="rotate(0,418,362)"/><rect x="411" y="369" width="14" height="14" transform="rotate(0,418,376)"/><rect x="411" y="383" width="14" height="14" transform="rotate(0,418,390)"/><rect x="411" y="397" width="14" height="14" transform="rotate(0,418,404)"/><rect x="411" y="411" width="14" height="14" transform="rotate(0,418,418)"/><path d="M 411 425v 14h 7a 7 7, 0, 0, 0, 0 -14" transform="rotate(90,418,432)"/><circle cx="418" cy="474" r="7" transform="rotate(0,418,474)"/><path d="M 425 145v 14h 7a 7 7, 0, 0, 0, 0 -14" transform="rotate(-90,432,152)"/><rect x="425" y="159" width="14" height="14" transform="rotate(0,432,166)"/><path d="M 425 173v 14h 7a 7 7, 0, 0, 0, 0 -14" transform="rotate(90,432,180)"/><circle cx="432" cy="236" r="7" transform="rotate(0,432,236)"/><rect x="425" y="285" width="14" height="14" transform="rotate(0,432,292)"/><path d="M 425 327v 14h 14v -7a 7 7, 0, 0, 0, -7 -7" transform="rotate(-90,432,334)"/><path d="M 425 341v 14h 7a 7 7, 0, 0, 0, 0 -14" transform="rotate(90,432,348)"/><rect x="425" y="383" width="14" height="14" transform="rotate(0,432,390)"/><rect x="425" y="397" width="14" height="14" transform="rotate(0,432,404)"/><rect x="425" y="411" width="14" height="14" transform="rotate(0,432,418)"/><path d="M 425 439v 14h 14v -7a 7 7, 0, 0, 0, -7 -7" transform="rotate(-90,432,446)"/><path d="M 425 453v 14h 7a 7 7, 0, 0, 0, 0 -14" transform="rotate(90,432,460)"/><path d="M 439 159v 14h 7a 7 7, 0, 0, 0, 0 -14" transform="rotate(0,446,166)"/><circle cx="446" cy="194" r="7" transform="rotate(0,446,194)"/><path d="M 439 215v 14h 7a 7 7, 0, 0, 0, 0 -14" transform="rotate(180,446,222)"/><circle cx="446" cy="250" r="7" transform="rotate(0,446,250)"/><rect x="439" y="285" width="14" height="14" transform="rotate(0,446,292)"/><path d="M 439 327v 14h 7a 7 7, 0, 0, 0, 0 -14" transform="rotate(0,446,334)"/><path d="M 439 369v 14h 7a 7 7, 0, 0, 0, 0 -14" transform="rotate(-90,446,376)"/><rect x="439" y="383" width="14" height="14" transform="rotate(0,446,390)"/><rect x="439" y="397" width="14" height="14" transform="rotate(0,446,404)"/><rect x="439" y="411" width="14" height="14" transform="rotate(0,446,418)"/><rect x="439" y="425" width="14" height="14" transform="rotate(0,446,432)"/><path d="M 439 439v 14h 14v -7a 7 7, 0, 0, 0, -7 -7" transform="rotate(90,446,446)"/><path d="M 453 131v 14h 7a 7 7, 0, 0, 0, 0 -14" transform="rotate(-90,460,138)"/><path d="M 453 145v 14h 7a 7 7, 0, 0, 0, 0 -14" transform="rotate(90,460,152)"/><path d="M 453 215v 14h 7a 7 7, 0, 0, 0, 0 -14" transform="rotate(0,460,222)"/><circle cx="460" cy="264" r="7" transform="rotate(0,460,264)"/><path d="M 453 285v 14h 14v -7a 7 7, 0, 0, 0, -7 -7" transform="rotate(0,460,292)"/><rect x="453" y="299" width="14" height="14" transform="rotate(0,460,306)"/><path d="M 453 313v 14h 14v -7a 7 7, 0, 0, 0, -7 -7" transform="rotate(180,460,320)"/><path d="M 453 355v 14h 7a 7 7, 0, 0, 0, 0 -14" transform="rotate(180,460,362)"/><circle cx="474" cy="166" r="7" transform="rotate(0,474,166)"/><circle cx="474" cy="250" r="7" transform="rotate(0,474,250)"/><circle cx="474" cy="278" r="7" transform="rotate(0,474,278)"/><path d="M 467 313v 14h 14v -7a 7 7, 0, 0, 0, -7 -7" transform="rotate(0,474,320)"/><path d="M 467 327v 14h 7a 7 7, 0, 0, 0, 0 -14" transform="rotate(90,474,334)"/><path d="M 467 355v 14h 7a 7 7, 0, 0, 0, 0 -14" transform="rotate(0,474,362)"/><circle cx="474" cy="390" r="7" transform="rotate(0,474,390)"/><circle cx="474" cy="474" r="7" transform="rotate(0,474,474)"/></clipPath><clipPath id="clip-path-corners-square-color-0-0"><path clip-rule="evenodd" d="M 68 19a 49 49 0 1 0 0.1 0zm 0 14a 35 35 0 1 1 -0.1 0Z" transform="rotate(0,68,68)"/></clipPath><clipPath id="clip-path-corners-dot-color-0-0"><circle cx="68" cy="68" r="21" transform="rotate(0,68,68)"/></clipPath><clipPath id="clip-path-corners-square-color-1-0"><path clip-rule="evenodd" d="M 432 19a 49 49 0 1 0 0.1 0zm 0 14a 35 35 0 1 1 -0.1 0Z" transform="rotate(90,432,68)"/></clipPath><clipPath id="clip-path-corners-dot-color-1-0"><circle cx="432" cy="68" r="21" transform="rotate(90,432,68)"/></clipPath><clipPath id="clip-path-corners-square-color-0-1"><path clip-rule="evenodd" d="M 68 383a 49 49 0 1 0 0.1 0zm 0 14a 35 35 0 1 1 -0.1 0Z" transform="rotate(-90,68,432)"/></clipPath><clipPath id="clip-path-corners-dot-color-0-1"><circle cx="68" cy="432" r="21" transform="rotate(-90,68,432)"/></clipPath></defs><rect x="0" y="0" height="500" width="500" clip-path="url('#clip-path-background-color')" fill="#fff"/><rect x="0" y="0" height="500" width="500" clip-path="url('#clip-path-dot-color')" fill="#000000"/><rect x="19" y="19" height="98" width="98" clip-path="url('#clip-path-corners-square-color-0-0')" fill="#000000"/><rect x="47" y="47" height="42" width="42" clip-path="url('#clip-path-corners-dot-color-0-0')" fill="#000000"/><rect x="383" y="19" height="98" width="98" clip-path="url('#clip-path-corners-square-color-1-0')" fill="#000000"/><rect x="411" y="47" height="42" width="42" clip-path="url('#clip-path-corners-dot-color-1-0')" fill="#000000"/><rect x="19" y="383" height="98" width="98" clip-path="url('#clip-path-corners-square-color-0-1')" fill="#000000"/><rect x="47" y="411" height="42" width="42" clip-path="url('#clip-path-corners-dot-color-0-1')" fill="#000000"/></svg>